<?xml version="1.0" encoding="UTF-8" standalone="no"?>
<!DOCTYPE svg PUBLIC "-//W3C//DTD SVG 1.1//EN"
 "http://www.w3.org/Graphics/SVG/1.1/DTD/svg11.dtd">
<!-- Generated by graphviz version 7.1.0 (20230121.1956)
 -->
<!-- Pages: 1 -->
<svg width="88pt" height="397pt"
 viewBox="0.00 0.00 88.00 397.39" xmlns="http://www.w3.org/2000/svg" xmlns:xlink="http://www.w3.org/1999/xlink">
<g id="graph0" class="graph" transform="scale(1 1) rotate(0) translate(4 393.39)">
<polygon fill="white" stroke="none" points="-4,4 -4,-393.39 84,-393.39 84,4 -4,4"/>
<!-- fake -->
<g id="node1" class="node">
<title>fake</title>
</g>
<!-- s1 -->
<g id="node5" class="node">
<title>s1</title>
<ellipse fill="none" stroke="black" cx="27" cy="-298.39" rx="27" ry="18"/>
<text text-anchor="middle" x="27" y="-294.69" font-family="Times New Roman,serif" font-size="14.00">s1</text>
</g>
<!-- fake&#45;&gt;s1 -->
<g id="edge1" class="edge">
<title>fake&#45;&gt;s1</title>
<path fill="none" stroke="black" stroke-width="2" d="M27,-353.21C27,-345.62 27,-336.49 27,-327.93"/>
<polygon fill="black" stroke="black" stroke-width="2" points="30.5,-329.45 27,-319.45 23.5,-329.45 30.5,-329.45"/>
</g>
<!-- s2 -->
<g id="node2" class="node">
<title>s2</title>
<ellipse fill="none" stroke="black" cx="27" cy="-211.39" rx="27" ry="18"/>
<text text-anchor="middle" x="27" y="-207.69" font-family="Times New Roman,serif" font-size="14.00">s2</text>
</g>
<!-- s2&#45;&gt;s2 -->
<g id="edge2" class="edge">
<title>s2&#45;&gt;s2</title>
<path fill="none" stroke="black" d="M51.53,-219.42C62.51,-220.19 72,-217.51 72,-211.39 72,-207.57 68.29,-205.09 62.83,-203.96"/>
<polygon fill="black" stroke="black" points="63.21,-200.47 53.04,-203.44 62.85,-207.46 63.21,-200.47"/>
<text text-anchor="middle" x="75.5" y="-207.69" font-family="Times New Roman,serif" font-size="14.00">a</text>
</g>
<!-- s3 -->
<g id="node3" class="node">
<title>s3</title>
<ellipse fill="none" stroke="black" cx="27" cy="-119.54" rx="18.72" ry="18.72"/>
<ellipse fill="none" stroke="black" cx="27" cy="-119.54" rx="22.7" ry="22.7"/>
<text text-anchor="middle" x="27" y="-115.84" font-family="Times New Roman,serif" font-size="14.00">s3</text>
</g>
<!-- s2&#45;&gt;s3 -->
<g id="edge9" class="edge">
<title>s2&#45;&gt;s3</title>
<path fill="none" stroke="black" d="M27,-193.07C27,-181.95 27,-167.14 27,-153.81"/>
<polygon fill="black" stroke="black" points="30.5,-154.11 27,-144.11 23.5,-154.11 30.5,-154.11"/>
<text text-anchor="middle" x="30.5" y="-164.19" font-family="Times New Roman,serif" font-size="14.00">c</text>
</g>
<!-- s2&#45;&gt;s1 -->
<g id="edge4" class="edge">
<title>s2&#45;&gt;s1</title>
<path fill="none" stroke="black" d="M27,-229.86C27,-241.13 27,-256.06 27,-269.01"/>
<polygon fill="black" stroke="black" points="23.5,-268.68 27,-278.68 30.5,-268.68 23.5,-268.68"/>
<text text-anchor="middle" x="31" y="-251.19" font-family="Times New Roman,serif" font-size="14.00">b</text>
</g>
<!-- s3&#45;&gt;s3 -->
<g id="edge6" class="edge">
<title>s3&#45;&gt;s3</title>
<path fill="none" stroke="black" d="M48.44,-128.39C58.75,-129.48 67.85,-126.53 67.85,-119.54 67.85,-115.4 64.64,-112.67 59.87,-111.37"/>
<polygon fill="black" stroke="black" points="60.13,-107.88 49.95,-110.79 59.73,-114.87 60.13,-107.88"/>
<text text-anchor="middle" x="71.35" y="-115.84" font-family="Times New Roman,serif" font-size="14.00">c</text>
</g>
<!-- s4 -->
<g id="node4" class="node">
<title>s4</title>
<ellipse fill="none" stroke="black" cx="27" cy="-22.85" rx="18.72" ry="18.72"/>
<ellipse fill="none" stroke="black" cx="27" cy="-22.85" rx="22.7" ry="22.7"/>
<text text-anchor="middle" x="27" y="-19.15" font-family="Times New Roman,serif" font-size="14.00">s4</text>
</g>
<!-- s3&#45;&gt;s4 -->
<g id="edge8" class="edge">
<title>s3&#45;&gt;s4</title>
<path fill="none" stroke="black" d="M27,-96.58C27,-84.95 27,-70.42 27,-57.41"/>
<polygon fill="black" stroke="black" points="30.5,-57.53 27,-47.53 23.5,-57.53 30.5,-57.53"/>
<text text-anchor="middle" x="31" y="-67.5" font-family="Times New Roman,serif" font-size="14.00">b</text>
</g>
<!-- s4&#45;&gt;s4 -->
<g id="edge3" class="edge">
<title>s4&#45;&gt;s4</title>
<path fill="none" stroke="black" d="M48.44,-31.69C58.75,-32.78 67.85,-29.84 67.85,-22.85 67.85,-18.7 64.64,-15.97 59.87,-14.67"/>
<polygon fill="black" stroke="black" points="60.13,-11.18 49.95,-14.09 59.73,-18.17 60.13,-11.18"/>
<text text-anchor="middle" x="71.35" y="-19.15" font-family="Times New Roman,serif" font-size="14.00">c</text>
</g>
<!-- s1&#45;&gt;s2 -->
<g id="edge5" class="edge">
<title>s1&#45;&gt;s2</title>
<path fill="none" stroke="black" d="M20.21,-280.83C17.02,-271.14 14.27,-258.64 16,-247.39 16.36,-245.03 16.85,-242.61 17.43,-240.2"/>
<polygon fill="black" stroke="black" points="20.77,-241.27 20.15,-230.69 14.04,-239.34 20.77,-241.27"/>
<text text-anchor="middle" x="19.5" y="-251.19" font-family="Times New Roman,serif" font-size="14.00">a</text>
</g>
<!-- s1&#45;&gt;s1 -->
<g id="edge7" class="edge">
<title>s1&#45;&gt;s1</title>
<path fill="none" stroke="black" d="M52.44,-305.18C63.03,-305.64 72,-303.38 72,-298.39 72,-295.35 68.67,-293.32 63.67,-292.31"/>
<polygon fill="black" stroke="black" points="64.15,-288.83 53.95,-291.7 63.72,-295.82 64.15,-288.83"/>
<text text-anchor="middle" x="76" y="-294.69" font-family="Times New Roman,serif" font-size="14.00">b</text>
</g>
</g>
</svg>
